<svg xmlns="http://www.w3.org/2000/svg" width="1200" height="700" viewBox="0 0 1200 700" fill="none">
  <defs>
    <linearGradient id="bg" x1="70" y1="30" x2="1130" y2="670" gradientUnits="userSpaceOnUse">
      <stop stop-color="#EFF6FF"/>
      <stop offset="1" stop-color="#ECFEFF"/>
    </linearGradient>
    <linearGradient id="shape" x1="0" y1="0" x2="1" y2="1">
      <stop stop-color="#0EA5E9"/>
      <stop offset="1" stop-color="#1D4ED8"/>
    </linearGradient>
  </defs>

  <rect width="1200" height="700" rx="36" fill="url(#bg)"/>
  <rect x="24" y="24" width="1152" height="652" rx="24" stroke="#0F172A" stroke-opacity="0.16" stroke-width="2"/>
  <rect x="0" y="0" width="1200" height="14" fill="#1D4ED8" fill-opacity="0.9"/>

  <text x="72" y="148" fill="#0F172A" font-family="Arial, Helvetica, sans-serif" font-size="34" font-weight="700">CyTech x Aquila</text>
  <text x="72" y="220" fill="#1E3A8A" font-family="Arial, Helvetica, sans-serif" font-size="22" font-weight="700">Certificate of Completion</text>
  <text x="72" y="316" fill="#0F172A" font-family="Arial, Helvetica, sans-serif" font-size="48" font-weight="700">Cloud Security Fundamentals Quiz</text>
  <text x="72" y="386" fill="#334155" font-family="Arial, Helvetica, sans-serif" font-size="24">Issued March 04, 2026</text>

  <rect x="72" y="440" width="430" height="80" rx="12" fill="#FFFFFF" fill-opacity="0.72"/>
  <text x="98" y="488" fill="#0F172A" font-family="Arial, Helvetica, sans-serif" font-size="28" font-weight="700">Score: 14 out of 15 (93%)</text>

  <path d="M924 272L1061 190L1198 272V432L1061 514L924 432V272Z" fill="url(#shape)" fill-opacity="0.9"/>
  <path d="M837 390L886 361L935 390V448L886 477L837 448V390Z" fill="#06B6D4" fill-opacity="0.95"/>
  <path d="M995 556L1051 524L1107 556V620L1051 652L995 620V556Z" fill="#BFDBFE" fill-opacity="0.95"/>
</svg>
