<svg xmlns="http://www.w3.org/2000/svg" width="1200" height="700" viewBox="0 0 1200 700" fill="none">
  <defs>
    <linearGradient id="bg" x1="60" y1="40" x2="1140" y2="660" gradientUnits="userSpaceOnUse">
      <stop stop-color="#F0FDFA"/>
      <stop offset="1" stop-color="#E0F2FE"/>
    </linearGradient>
    <linearGradient id="hex" x1="0" y1="0" x2="1" y2="1">
      <stop stop-color="#06B6D4"/>
      <stop offset="1" stop-color="#0369A1"/>
    </linearGradient>
  </defs>

  <rect width="1200" height="700" rx="36" fill="url(#bg)"/>
  <rect x="24" y="24" width="1152" height="652" rx="24" stroke="#0F172A" stroke-opacity="0.16" stroke-width="2"/>
  <rect x="0" y="0" width="12" height="700" fill="#0EA5E9"/>

  <text x="72" y="148" fill="#0F172A" font-family="Arial, Helvetica, sans-serif" font-size="34" font-weight="700">CyTech x Aquila</text>
  <text x="72" y="220" fill="#1E3A8A" font-family="Arial, Helvetica, sans-serif" font-size="22" font-weight="700">Certificate of Completion</text>
  <text x="72" y="316" fill="#0F172A" font-family="Arial, Helvetica, sans-serif" font-size="48" font-weight="700">Social Engineering Assessment</text>
  <text x="72" y="386" fill="#334155" font-family="Arial, Helvetica, sans-serif" font-size="24">Issued March 04, 2026</text>

  <rect x="72" y="440" width="430" height="80" rx="12" fill="#FFFFFF" fill-opacity="0.72"/>
  <text x="98" y="488" fill="#0F172A" font-family="Arial, Helvetica, sans-serif" font-size="28" font-weight="700">Score: 14 out of 15 (93%)</text>

  <path d="M923 286L1049 212L1175 286V434L1049 508L923 434V286Z" fill="url(#hex)" fill-opacity="0.92"/>
  <path d="M841 398L886 372L931 398V450L886 476L841 450V398Z" fill="#14B8A6" fill-opacity="0.95"/>
  <path d="M989 564L1040 534L1091 564V624L1040 654L989 624V564Z" fill="#CBD5E1" fill-opacity="0.9"/>
</svg>
